<svg xmlns="http://www.w3.org/2000/svg" xmlns:xlink="http://www.w3.org/1999/xlink" width="500" zoomAndPan="magnify" viewBox="0 0 375 374.999991" height="500" preserveAspectRatio="xMidYMid meet" version="1.0"><defs><clipPath id="f6bb833e44"><path d="M 95.320312 6.136719 L 279.679688 6.136719 L 279.679688 292.757812 L 95.320312 292.757812 Z M 95.320312 6.136719 " clip-rule="nonzero"/></clipPath><clipPath id="33df2b91df"><path d="M 138.070312 6.136719 L 236.929688 6.136719 C 260.539062 6.136719 279.679688 25.273438 279.679688 48.886719 L 279.679688 249.339844 C 279.679688 272.953125 260.539062 292.089844 236.929688 292.089844 L 138.070312 292.089844 C 114.460938 292.089844 95.320312 272.953125 95.320312 249.339844 L 95.320312 48.886719 C 95.320312 25.273438 114.460938 6.136719 138.070312 6.136719 Z M 138.070312 6.136719 " clip-rule="nonzero"/></clipPath><clipPath id="32d3011721"><path d="M 95.320312 6.136719 L 279.820312 6.136719 L 279.820312 291.886719 L 95.320312 291.886719 Z M 95.320312 6.136719 " clip-rule="nonzero"/></clipPath><clipPath id="12680c609f"><path d="M 138.070312 6.136719 L 236.929688 6.136719 C 260.539062 6.136719 279.675781 25.273438 279.675781 48.882812 L 279.675781 249.335938 C 279.675781 272.945312 260.539062 292.085938 236.929688 292.085938 L 138.070312 292.085938 C 114.460938 292.085938 95.320312 272.945312 95.320312 249.335938 L 95.320312 48.882812 C 95.320312 25.273438 114.460938 6.136719 138.070312 6.136719 Z M 138.070312 6.136719 " clip-rule="nonzero"/></clipPath><clipPath id="a7d12955a7"><path d="M 95.320312 298.46875 L 279.804688 298.46875 L 279.804688 362.726562 L 95.320312 362.726562 Z M 95.320312 298.46875 " clip-rule="nonzero"/></clipPath><clipPath id="091d534fdc"><path d="M 127.449219 298.46875 L 247.550781 298.46875 C 265.296875 298.46875 279.679688 312.855469 279.679688 330.597656 C 279.679688 348.34375 265.296875 362.726562 247.550781 362.726562 L 127.449219 362.726562 C 109.703125 362.726562 95.320312 348.34375 95.320312 330.597656 C 95.320312 312.855469 109.703125 298.46875 127.449219 298.46875 Z M 127.449219 298.46875 " clip-rule="nonzero"/></clipPath><clipPath id="a54bb296b5"><path d="M 95.320312 298.46875 L 279.820312 298.46875 L 279.820312 362.96875 L 95.320312 362.96875 Z M 95.320312 298.46875 " clip-rule="nonzero"/></clipPath><clipPath id="5ab161694c"><path d="M 127.449219 298.46875 L 247.550781 298.46875 C 265.292969 298.46875 279.675781 312.855469 279.675781 330.597656 C 279.675781 348.339844 265.292969 362.722656 247.550781 362.722656 L 127.449219 362.722656 C 109.707031 362.722656 95.320312 348.339844 95.320312 330.597656 C 95.320312 312.855469 109.707031 298.46875 127.449219 298.46875 Z M 127.449219 298.46875 " clip-rule="nonzero"/></clipPath></defs><g clip-path="url(#f6bb833e44)"><g clip-path="url(#33df2b91df)"></g></g><g clip-path="url(#32d3011721)"><g clip-path="url(#12680c609f)"><path stroke-linecap="butt" transform="matrix(0.75, 0, 0, 0.75, 95.320875, 6.135076)" fill="none" stroke-linejoin="miter" d="M 56.999254 0.0021898 L 188.811762 0.0021898 C 220.290931 0.0021898 245.806558 25.517816 245.806558 56.996985 L 245.806558 324.267836 C 245.806558 355.747005 220.290931 381.26784 188.811762 381.26784 L 56.999254 381.26784 C 25.520085 381.26784 -0.000750054 355.747005 -0.000750054 324.267836 L -0.000750054 56.996985 C -0.000750054 25.517816 25.520085 0.0021898 56.999254 0.0021898 Z M 56.999254 0.0021898 " stroke="currentColor" stroke-width="40" stroke-opacity="1" stroke-miterlimit="4"/></g></g><g clip-path="url(#a7d12955a7)"><g clip-path="url(#091d534fdc)"></g></g><g clip-path="url(#a54bb296b5)"><g clip-path="url(#5ab161694c)"><path stroke-linecap="butt" transform="matrix(0.75, 0, 0, 0.75, 95.321914, 298.469892)" fill="none" stroke-linejoin="miter" d="M 42.836406 -0.00152213 L 202.971823 -0.00152213 C 226.628073 -0.00152213 245.805156 19.18077 245.805156 42.83702 C 245.805156 66.49327 226.628073 85.670353 202.971823 85.670353 L 42.836406 85.670353 C 19.180156 85.670353 -0.00213565 66.49327 -0.00213565 42.83702 C -0.00213565 19.18077 19.180156 -0.00152213 42.836406 -0.00152213 Z M 42.836406 -0.00152213 " stroke="currentColor" stroke-width="40" stroke-opacity="1" stroke-miterlimit="4"/></g></g></svg>