<svg xmlns="http://www.w3.org/2000/svg" xmlns:xlink="http://www.w3.org/1999/xlink" width="500" zoomAndPan="magnify" viewBox="0 0 375 374.999991" height="500" preserveAspectRatio="xMidYMid meet" version="1.0"><defs><clipPath id="7ff2373398"><path d="M 34.238281 16.027344 L 341 16.027344 L 341 245.09375 L 34.238281 245.09375 Z M 34.238281 16.027344 " clip-rule="nonzero"/></clipPath><clipPath id="6b17f80b73"><path d="M 76.988281 16.027344 L 298.011719 16.027344 C 321.621094 16.027344 340.761719 35.167969 340.761719 58.777344 L 340.761719 202.34375 C 340.761719 225.953125 321.621094 245.09375 298.011719 245.09375 L 76.988281 245.09375 C 65.652344 245.09375 54.777344 240.589844 46.761719 232.574219 C 38.742188 224.554688 34.238281 213.683594 34.238281 202.34375 L 34.238281 58.777344 C 34.238281 35.167969 53.378906 16.027344 76.988281 16.027344 Z M 76.988281 16.027344 " clip-rule="nonzero"/></clipPath><clipPath id="ad545e57a7"><path d="M 34.238281 16.03125 L 340.988281 16.03125 L 340.988281 244.777344 L 34.238281 244.777344 Z M 34.238281 16.03125 " clip-rule="nonzero"/></clipPath><clipPath id="bf73149057"><path d="M 76.988281 16.03125 L 298.003906 16.03125 C 321.617188 16.03125 340.753906 35.167969 340.753906 58.777344 L 340.753906 202.34375 C 340.753906 225.953125 321.617188 245.089844 298.003906 245.089844 L 76.988281 245.089844 C 65.652344 245.089844 54.777344 240.585938 46.761719 232.570312 C 38.742188 224.554688 34.238281 213.679688 34.238281 202.34375 L 34.238281 58.777344 C 34.238281 35.167969 53.378906 16.03125 76.988281 16.03125 Z M 76.988281 16.03125 " clip-rule="nonzero"/></clipPath><clipPath id="1ecadf81a1"><path d="M 34.238281 263.265625 L 340.980469 263.265625 L 340.980469 354.363281 L 34.238281 354.363281 Z M 34.238281 263.265625 " clip-rule="nonzero"/></clipPath><clipPath id="c5a1982694"><path d="M 76.988281 263.265625 L 298.011719 263.265625 C 321.621094 263.265625 340.761719 282.40625 340.761719 306.015625 L 340.761719 311.613281 C 340.761719 335.222656 321.621094 354.363281 298.011719 354.363281 L 76.988281 354.363281 C 53.378906 354.363281 34.238281 335.222656 34.238281 311.613281 L 34.238281 306.015625 C 34.238281 282.40625 53.378906 263.265625 76.988281 263.265625 Z M 76.988281 263.265625 " clip-rule="nonzero"/></clipPath><clipPath id="593a11580f"><path d="M 34.25 263.265625 L 340.988281 263.265625 L 340.988281 354.015625 L 34.25 354.015625 Z M 34.25 263.265625 " clip-rule="nonzero"/></clipPath><clipPath id="aa700c801c"><path d="M 76.996094 263.265625 L 298 263.265625 C 321.605469 263.265625 340.746094 282.40625 340.746094 306.011719 L 340.746094 311.609375 C 340.746094 335.21875 321.605469 354.355469 298 354.355469 L 76.996094 354.355469 C 53.386719 354.355469 34.25 335.21875 34.25 311.609375 L 34.25 306.011719 C 34.25 282.40625 53.386719 263.265625 76.996094 263.265625 Z M 76.996094 263.265625 " clip-rule="nonzero"/></clipPath></defs><rect x="-37.5" width="450" fill="#ffffff" y="-37.499999" height="449.999989" fill-opacity="1"/><rect x="-37.5" width="450" fill="#ffffff" y="-37.499999" height="449.999989" fill-opacity="1"/><g clip-path="url(#7ff2373398)"><g clip-path="url(#6b17f80b73)"><path fill="#ffffff" d="M 34.238281 16.027344 L 341.152344 16.027344 L 341.152344 245.09375 L 34.238281 245.09375 Z M 34.238281 16.027344 " fill-opacity="1" fill-rule="nonzero"/></g></g><g clip-path="url(#ad545e57a7)"><g clip-path="url(#bf73149057)"><path stroke-linecap="butt" transform="matrix(0.75, 0, 0, 0.75, 34.239106, 16.029519)" fill="none" stroke-linejoin="miter" d="M 56.998904 0.0023086 L 351.686423 0.0023086 C 383.1708 0.0023086 408.686427 25.517935 408.686427 56.997104 L 408.686427 248.418992 C 408.686427 279.89816 383.1708 305.413787 351.686423 305.413787 L 56.998904 305.413787 C 41.88432 305.413787 27.384319 299.408578 16.696818 288.721078 C 6.004109 278.033577 -0.0010999 263.533576 -0.0010999 248.418992 L -0.0010999 56.997104 C -0.0010999 25.517935 25.519735 0.0023086 56.998904 0.0023086 Z M 56.998904 0.0023086 " stroke="#0f1729" stroke-width="62" stroke-opacity="1" stroke-miterlimit="4"/></g></g><g clip-path="url(#1ecadf81a1)"><g clip-path="url(#c5a1982694)"><path fill="#ffffff" d="M 34.238281 263.265625 L 340.625 263.265625 L 340.625 354.363281 L 34.238281 354.363281 Z M 34.238281 263.265625 " fill-opacity="1" fill-rule="nonzero"/></g></g><g clip-path="url(#593a11580f)"><g clip-path="url(#aa700c801c)"><path stroke-linecap="butt" transform="matrix(0.75, 0, 0, 0.75, 34.248459, 263.266886)" fill="none" stroke-linejoin="miter" d="M 56.99685 -0.00168122 L 351.668744 -0.00168122 C 383.142705 -0.00168122 408.66354 25.519154 408.66354 56.993114 L 408.66354 64.456656 C 408.66354 95.935825 383.142705 121.451452 351.668744 121.451452 L 56.99685 121.451452 C 25.517681 121.451452 0.00205439 95.935825 0.00205439 64.456656 L 0.00205439 56.993114 C 0.00205439 25.519154 25.517681 -0.00168122 56.99685 -0.00168122 Z M 56.99685 -0.00168122 " stroke="#0f1729" stroke-width="62" stroke-opacity="1" stroke-miterlimit="4"/></g></g></svg>