<svg xmlns="http://www.w3.org/2000/svg" xmlns:xlink="http://www.w3.org/1999/xlink" width="500" zoomAndPan="magnify" viewBox="0 0 375 374.999991" height="500" preserveAspectRatio="xMidYMid meet" version="1.0"><defs><clipPath id="a9c219dc7d"><path d="M 13.128906 12.738281 L 120.800781 12.738281 L 120.800781 217 L 13.128906 217 Z M 13.128906 12.738281 " clip-rule="nonzero"/></clipPath><clipPath id="9c63f85ce7"><path d="M 55.878906 12.738281 L 78.050781 12.738281 C 101.660156 12.738281 120.800781 31.878906 120.800781 55.488281 L 120.800781 174.234375 C 120.800781 197.84375 101.660156 216.984375 78.050781 216.984375 L 55.878906 216.984375 C 32.269531 216.984375 13.128906 197.84375 13.128906 174.234375 L 13.128906 55.488281 C 13.128906 31.878906 32.269531 12.738281 55.878906 12.738281 Z M 55.878906 12.738281 " clip-rule="nonzero"/></clipPath><clipPath id="13cfd1fd34"><path d="M 13.128906 12.738281 L 121 12.738281 L 121 216.738281 L 13.128906 216.738281 Z M 13.128906 12.738281 " clip-rule="nonzero"/></clipPath><clipPath id="4b5df178a8"><path d="M 55.878906 12.738281 L 78.050781 12.738281 C 101.660156 12.738281 120.800781 31.878906 120.800781 55.488281 L 120.800781 174.234375 C 120.800781 197.84375 101.660156 216.984375 78.050781 216.984375 L 55.878906 216.984375 C 32.269531 216.984375 13.128906 197.84375 13.128906 174.234375 L 13.128906 55.488281 C 13.128906 31.878906 32.269531 12.738281 55.878906 12.738281 Z M 55.878906 12.738281 " clip-rule="nonzero"/></clipPath><clipPath id="ce2579a2e2"><path d="M 13.128906 235.128906 L 120.800781 235.128906 L 120.800781 362.570312 L 13.128906 362.570312 Z M 13.128906 235.128906 " clip-rule="nonzero"/></clipPath><clipPath id="3cb9253bc6"><path d="M 55.878906 235.128906 L 78.050781 235.128906 C 101.660156 235.128906 120.800781 254.269531 120.800781 277.878906 L 120.800781 319.511719 C 120.800781 343.121094 101.660156 362.261719 78.050781 362.261719 L 55.878906 362.261719 C 32.269531 362.261719 13.128906 343.121094 13.128906 319.511719 L 13.128906 277.878906 C 13.128906 254.269531 32.269531 235.128906 55.878906 235.128906 Z M 55.878906 235.128906 " clip-rule="nonzero"/></clipPath><clipPath id="f04ce2b182"><path d="M 13.132812 235.128906 L 121 235.128906 L 121 362.628906 L 13.132812 362.628906 Z M 13.132812 235.128906 " clip-rule="nonzero"/></clipPath><clipPath id="1322073ea1"><path d="M 55.878906 235.128906 L 78.050781 235.128906 C 101.660156 235.128906 120.796875 254.265625 120.796875 277.875 L 120.796875 319.503906 C 120.796875 343.113281 101.660156 362.253906 78.050781 362.253906 L 55.878906 362.253906 C 32.269531 362.253906 13.132812 343.113281 13.132812 319.503906 L 13.132812 277.875 C 13.132812 254.265625 32.269531 235.128906 55.878906 235.128906 Z M 55.878906 235.128906 " clip-rule="nonzero"/></clipPath><clipPath id="a275cd897f"><path d="M 133.777344 12.738281 L 241.597656 12.738281 L 241.597656 103.835938 L 133.777344 103.835938 Z M 133.777344 12.738281 " clip-rule="nonzero"/></clipPath><clipPath id="c72c2800a0"><path d="M 176.527344 12.738281 L 198.699219 12.738281 C 222.308594 12.738281 241.449219 31.878906 241.449219 55.488281 L 241.449219 61.085938 C 241.449219 84.695312 222.308594 103.835938 198.699219 103.835938 L 176.527344 103.835938 C 152.917969 103.835938 133.777344 84.695312 133.777344 61.085938 L 133.777344 55.488281 C 133.777344 31.878906 152.917969 12.738281 176.527344 12.738281 Z M 176.527344 12.738281 " clip-rule="nonzero"/></clipPath><clipPath id="1a8e77157f"><path d="M 133.78125 12.738281 L 241.777344 12.738281 L 241.777344 103.488281 L 133.78125 103.488281 Z M 133.78125 12.738281 " clip-rule="nonzero"/></clipPath><clipPath id="ffaa0163f3"><path d="M 176.527344 12.738281 L 198.699219 12.738281 C 222.304688 12.738281 241.445312 31.875 241.445312 55.484375 L 241.445312 61.082031 C 241.445312 84.691406 222.304688 103.828125 198.699219 103.828125 L 176.527344 103.828125 C 152.917969 103.828125 133.78125 84.691406 133.78125 61.082031 L 133.78125 55.484375 C 133.78125 31.875 152.917969 12.738281 176.527344 12.738281 Z M 176.527344 12.738281 " clip-rule="nonzero"/></clipPath><clipPath id="41de11b67d"><path d="M 254.199219 12.738281 L 361.871094 12.738281 L 361.871094 298.742188 L 254.199219 298.742188 Z M 254.199219 12.738281 " clip-rule="nonzero"/></clipPath><clipPath id="13eaa3b99d"><path d="M 296.949219 12.738281 L 319.121094 12.738281 C 342.730469 12.738281 361.871094 31.878906 361.871094 55.488281 L 361.871094 255.945312 C 361.871094 279.554688 342.730469 298.695312 319.121094 298.695312 L 296.949219 298.695312 C 273.339844 298.695312 254.199219 279.554688 254.199219 255.945312 L 254.199219 55.488281 C 254.199219 31.878906 273.339844 12.738281 296.949219 12.738281 Z M 296.949219 12.738281 " clip-rule="nonzero"/></clipPath><clipPath id="7e4f577fd2"><path d="M 254.199219 12.738281 L 362 12.738281 L 362 298.488281 L 254.199219 298.488281 Z M 254.199219 12.738281 " clip-rule="nonzero"/></clipPath><clipPath id="54f018bd94"><path d="M 296.949219 12.738281 L 319.121094 12.738281 C 342.730469 12.738281 361.871094 31.878906 361.871094 55.488281 L 361.871094 255.9375 C 361.871094 279.546875 342.730469 298.6875 319.121094 298.6875 L 296.949219 298.6875 C 273.339844 298.6875 254.199219 279.546875 254.199219 255.9375 L 254.199219 55.488281 C 254.199219 31.878906 273.339844 12.738281 296.949219 12.738281 Z M 296.949219 12.738281 " clip-rule="nonzero"/></clipPath><clipPath id="4cc8bfd85f"><path d="M 133.777344 114.863281 L 241.449219 114.863281 L 241.449219 362.59375 L 133.777344 362.59375 Z M 133.777344 114.863281 " clip-rule="nonzero"/></clipPath><clipPath id="2a276d1427"><path d="M 176.527344 114.863281 L 198.699219 114.863281 C 222.308594 114.863281 241.449219 134 241.449219 157.613281 L 241.449219 319.511719 C 241.449219 343.121094 222.308594 362.261719 198.699219 362.261719 L 176.527344 362.261719 C 152.917969 362.261719 133.777344 343.121094 133.777344 319.511719 L 133.777344 157.613281 C 133.777344 134 152.917969 114.863281 176.527344 114.863281 Z M 176.527344 114.863281 " clip-rule="nonzero"/></clipPath><clipPath id="e00dff5399"><path d="M 133.777344 114.863281 L 241.777344 114.863281 L 241.777344 362.363281 L 133.777344 362.363281 Z M 133.777344 114.863281 " clip-rule="nonzero"/></clipPath><clipPath id="e7a06c07c2"><path d="M 176.527344 114.863281 L 198.699219 114.863281 C 222.308594 114.863281 241.449219 134 241.449219 157.609375 L 241.449219 319.507812 C 241.449219 343.117188 222.308594 362.257812 198.699219 362.257812 L 176.527344 362.257812 C 152.917969 362.257812 133.777344 343.117188 133.777344 319.507812 L 133.777344 157.609375 C 133.777344 134 152.917969 114.863281 176.527344 114.863281 Z M 176.527344 114.863281 " clip-rule="nonzero"/></clipPath><clipPath id="001391b732"><path d="M 254.199219 304.140625 L 362 304.140625 L 362 362.261719 L 254.199219 362.261719 Z M 254.199219 304.140625 " clip-rule="nonzero"/></clipPath><clipPath id="9db6a38abd"><path d="M 283.257812 304.140625 L 332.8125 304.140625 C 340.519531 304.140625 347.910156 307.203125 353.359375 312.652344 C 358.808594 318.101562 361.871094 325.492188 361.871094 333.199219 C 361.871094 340.910156 358.808594 348.300781 353.359375 353.75 C 347.910156 359.199219 340.519531 362.261719 332.8125 362.261719 L 283.257812 362.261719 C 275.550781 362.261719 268.160156 359.199219 262.710938 353.75 C 257.261719 348.300781 254.199219 340.910156 254.199219 333.199219 C 254.199219 325.492188 257.261719 318.101562 262.710938 312.652344 C 268.160156 307.203125 275.550781 304.140625 283.257812 304.140625 Z M 283.257812 304.140625 " clip-rule="nonzero"/></clipPath><clipPath id="89816c6ad8"><path d="M 254.207031 304.140625 L 362 304.140625 L 362 361.890625 L 254.207031 361.890625 Z M 254.207031 304.140625 " clip-rule="nonzero"/></clipPath><clipPath id="df67111fcc"><path d="M 283.261719 304.140625 L 332.808594 304.140625 C 340.511719 304.140625 347.902344 307.203125 353.351562 312.652344 C 358.800781 318.101562 361.863281 325.492188 361.863281 333.195312 C 361.863281 340.902344 358.800781 348.292969 353.351562 353.742188 C 347.902344 359.191406 340.511719 362.253906 332.808594 362.253906 L 283.261719 362.253906 C 275.554688 362.253906 268.164062 359.191406 262.714844 353.742188 C 257.265625 348.292969 254.207031 340.902344 254.207031 333.195312 C 254.207031 325.492188 257.265625 318.101562 262.714844 312.652344 C 268.164062 307.203125 275.554688 304.140625 283.261719 304.140625 Z M 283.261719 304.140625 " clip-rule="nonzero"/></clipPath></defs><g clip-path="url(#a9c219dc7d)"><g clip-path="url(#9c63f85ce7)"></g></g><g clip-path="url(#13cfd1fd34)"><g clip-path="url(#4b5df178a8)"><path stroke-linecap="butt" transform="matrix(0.75, 0, 0, 0.75, 13.128261, 12.738863)" fill="none" stroke-linejoin="miter" d="M 57.000864 -0.000775245 L 86.563366 -0.000775245 C 118.042535 -0.000775245 143.56337 25.52006 143.56337 56.999228 L 143.56337 215.327364 C 143.56337 246.806533 118.042535 272.327368 86.563366 272.327368 L 57.000864 272.327368 C 25.521695 272.327368 0.000860123 246.806533 0.000860123 215.327364 L 0.000860123 56.999228 C 0.000860123 25.52006 25.521695 -0.000775245 57.000864 -0.000775245 Z M 57.000864 -0.000775245 " stroke="currentColor" stroke-width="50" stroke-opacity="1" stroke-miterlimit="4"/></g></g><g clip-path="url(#ce2579a2e2)"><g clip-path="url(#3cb9253bc6)"></g></g><g clip-path="url(#f04ce2b182)"><g clip-path="url(#1322073ea1)"><path stroke-linecap="butt" transform="matrix(0.75, 0, 0, 0.75, 13.131617, 235.127797)" fill="none" stroke-linejoin="miter" d="M 56.996394 0.00147852 L 86.558897 0.00147852 C 118.038068 0.00147852 143.553696 25.517107 143.553696 56.996278 L 143.553696 112.501493 C 143.553696 143.980664 118.038068 169.5015 86.558897 169.5015 L 56.996394 169.5015 C 25.517223 169.5015 0.00159454 143.980664 0.00159454 112.501493 L 0.00159454 56.996278 C 0.00159454 25.517107 25.517223 0.00147852 56.996394 0.00147852 Z M 56.996394 0.00147852 " stroke="currentColor" stroke-width="50" stroke-opacity="1" stroke-miterlimit="4"/></g></g><g clip-path="url(#a275cd897f)"><g clip-path="url(#c72c2800a0)"></g></g><g clip-path="url(#1a8e77157f)"><g clip-path="url(#ffaa0163f3)"><path stroke-linecap="butt" transform="matrix(0.75, 0, 0, 0.75, 133.780234, 12.738245)" fill="none" stroke-linejoin="miter" d="M 56.99615 0.0000487553 L 86.558652 0.0000487553 C 118.032612 0.0000487553 143.553447 25.515675 143.553447 56.994844 L 143.553447 64.458386 C 143.553447 95.937555 118.032612 121.453182 86.558652 121.453182 L 56.99615 121.453182 C 25.516981 121.453182 0.00135451 95.937555 0.00135451 64.458386 L 0.00135451 56.994844 C 0.00135451 25.515675 25.516981 0.0000487553 56.99615 0.0000487553 Z M 56.99615 0.0000487553 " stroke="currentColor" stroke-width="50" stroke-opacity="1" stroke-miterlimit="4"/></g></g><g clip-path="url(#41de11b67d)"><g clip-path="url(#13eaa3b99d)"></g></g><g clip-path="url(#7e4f577fd2)"><g clip-path="url(#54f018bd94)"><path stroke-linecap="butt" transform="matrix(0.75, 0, 0, 0.75, 254.199948, 12.738245)" fill="none" stroke-linejoin="miter" d="M 56.999032 0.0000487553 L 86.561534 0.0000487553 C 118.040702 0.0000487553 143.561537 25.520884 143.561537 57.000052 L 143.561537 324.265695 C 143.561537 355.744864 118.040702 381.265699 86.561534 381.265699 L 56.999032 381.265699 C 25.519863 381.265699 -0.000972077 355.744864 -0.000972077 324.265695 L -0.000972077 57.000052 C -0.000972077 25.520884 25.519863 0.0000487553 56.999032 0.0000487553 Z M 56.999032 0.0000487553 " stroke="currentColor" stroke-width="50" stroke-opacity="1" stroke-miterlimit="4"/></g></g><g clip-path="url(#4cc8bfd85f)"><g clip-path="url(#2a276d1427)"></g></g><g clip-path="url(#e00dff5399)"><g clip-path="url(#e7a06c07c2)"><path stroke-linecap="butt" transform="matrix(0.75, 0, 0, 0.75, 133.777114, 114.861468)" fill="none" stroke-linejoin="miter" d="M 57.00031 0.00241812 L 86.562812 0.00241812 C 118.041981 0.00241812 143.562816 25.518045 143.562816 56.997214 L 143.562816 272.861811 C 143.562816 304.34098 118.041981 329.861815 86.562812 329.861815 L 57.00031 329.861815 C 25.521141 329.861815 0.00030618 304.34098 0.00030618 272.861811 L 0.00030618 56.997214 C 0.00030618 25.518045 25.521141 0.00241812 57.00031 0.00241812 Z M 57.00031 0.00241812 " stroke="currentColor" stroke-width="50" stroke-opacity="1" stroke-miterlimit="4"/></g></g><g clip-path="url(#001391b732)"><g clip-path="url(#9db6a38abd)"></g></g><g clip-path="url(#89816c6ad8)"><g clip-path="url(#df67111fcc)"><path stroke-linecap="butt" transform="matrix(0.75, 0, 0, 0.75, 254.205895, 304.140508)" fill="none" stroke-linejoin="miter" d="M 38.741103 0.000155963 L 104.803612 0.000155963 C 115.074447 0.000155963 124.928615 4.08349 132.19424 11.349116 C 139.459866 18.614742 143.5432 28.46891 143.5432 38.739744 C 143.5432 49.015787 139.459866 58.869955 132.19424 66.135581 C 124.928615 73.401207 115.074447 77.484541 104.803612 77.484541 L 38.741103 77.484541 C 28.46506 77.484541 18.610892 73.401207 11.345266 66.135581 C 4.079641 58.869955 0.00151499 49.015787 0.00151499 38.739744 C 0.00151499 28.46891 4.079641 18.614742 11.345266 11.349116 C 18.610892 4.08349 28.46506 0.000155963 38.741103 0.000155963 Z M 38.741103 0.000155963 " stroke="currentColor" stroke-width="50" stroke-opacity="1" stroke-miterlimit="4"/></g></g></svg>