<?xml version="1.0" encoding="UTF-8"?>
<svg version="1.1" xmlns="http://www.w3.org/2000/svg" width="512" height="512">
<path d="M0 0 C1.31734383 -0.0098568 1.31734383 -0.0098568 2.66130066 -0.01991272 C5.57595907 -0.03966892 8.49056588 -0.05131402 11.40527344 -0.0612793 C12.39991356 -0.06535482 13.39455368 -0.06943035 14.41933441 -0.07362938 C19.68466485 -0.0945009 24.94996915 -0.10879744 30.21533203 -0.11816406 C35.65397426 -0.12922543 41.09220699 -0.16361923 46.5307045 -0.20333576 C50.71204386 -0.22948434 54.89328546 -0.23785439 59.0746994 -0.24144554 C61.07935092 -0.24631674 63.08399792 -0.25794585 65.08856964 -0.27648354 C67.89661554 -0.30083538 70.70359955 -0.29991705 73.51171875 -0.29296875 C74.33792221 -0.30577881 75.16412567 -0.31858887 76.0153656 -0.33178711 C81.29034789 -0.28428213 84.48177594 0.46931752 88.51464844 4.17700195 C92.83684243 10.31071398 93.05470034 16.15776358 92.90527344 23.45825195 C92.89961365 24.51234253 92.89395386 25.56643311 92.88812256 26.65246582 C92.86586578 29.99445449 92.81568821 33.33534143 92.76464844 36.67700195 C92.74456966 38.95302805 92.72632132 41.22907109 92.70996094 43.50512695 C92.66603624 49.06278977 92.59923181 54.61981712 92.51464844 60.17700195 C93.07310207 60.17548307 93.63155571 60.17396419 94.20693219 60.17239928 C127.30011963 60.08290102 160.39327676 60.01426285 193.48655809 59.97274064 C197.45946341 59.96773777 201.43236848 59.96256048 205.40527344 59.95727539 C206.59168202 59.95570153 206.59168202 59.95570153 207.80205844 59.95409587 C220.61146533 59.9366872 233.42080047 59.90514697 246.23016478 59.86839077 C259.37223349 59.83099419 272.51426461 59.80876882 285.65638435 59.80064797 C293.76682513 59.79515752 301.87706311 59.77781202 309.98744147 59.74533609 C316.20487295 59.72170708 322.42214958 59.71917887 328.63961983 59.72457123 C331.19140307 59.72346886 333.74319384 59.7154869 336.29493141 59.70018005 C339.77447102 59.68032779 343.25313742 59.6850463 346.73269653 59.69598389 C348.25313291 59.67850684 348.25313291 59.67850684 349.80428517 59.66067672 C355.70295848 59.71091828 358.99846925 60.29132785 363.51464844 64.17700195 C367.04470635 68.1939644 367.82670775 71.72906878 367.74267578 77.08032227 C367.37134687 80.49463992 365.94871305 83.04959984 364.32714844 86.05200195 C363.59011559 87.44842264 362.85454727 88.84561688 362.12011719 90.2434082 C361.70810059 91.01700684 361.29608398 91.79060547 360.87158203 92.58764648 C358.78709124 96.56535598 356.80531513 100.59295744 354.81152344 104.61669922 C350.21206474 113.89554295 345.54092754 123.1286464 340.6796875 132.27294922 C335.38604568 142.25467551 330.25886095 152.32315482 325.10961914 162.37988281 C324.73982437 163.10054428 324.3700296 163.82120575 323.98902893 164.56370544 C323.25472151 165.9963644 322.5227912 167.43024439 321.7933197 168.8653717 C319.97669481 172.42072926 318.10664987 175.92455158 316.109375 179.38208008 C315.72733917 180.05555481 315.34530334 180.72902954 314.95169067 181.4229126 C314.22876441 182.68993505 313.48965224 183.94791443 312.73165894 185.1942749 C310.98323857 188.28433559 310.43450341 189.78965945 311.16381836 193.31445312 C311.60959229 194.25909424 312.05536621 195.20373535 312.51464844 196.17700195 C312.87453857 196.94665283 313.23442871 197.71630371 313.60522461 198.50927734 C314.00201416 199.25685303 314.39880371 200.00442871 314.80761719 200.7746582 C315.49380127 202.07741699 315.49380127 202.07741699 316.19384766 203.40649414 C316.69158691 204.34138672 317.18932617 205.2762793 317.70214844 206.23950195 C318.79260206 208.30819101 319.88241576 210.37721747 320.97167969 212.4465332 C321.83720459 214.0874292 321.83720459 214.0874292 322.72021484 215.76147461 C325.48695043 221.02768289 328.21700873 226.31277625 330.94577026 231.59872437 C332.5352467 234.67751592 334.12661842 237.75532767 335.71777344 240.83325195 C336.03395126 241.4449675 336.35012909 242.05668304 336.67588806 242.68693542 C339.99236262 249.10276821 343.31526682 255.515263 346.63964844 261.92700195 C347.20627197 263.02044922 347.77289551 264.11389648 348.35668945 265.24047852 C351.31036588 270.93766837 354.27214263 276.63049283 357.24511719 282.31762695 C357.84630371 283.46908203 358.44749023 284.62053711 359.06689453 285.80688477 C360.21506969 288.00513857 361.36505044 290.20245051 362.51708984 292.39868164 C363.02804199 293.37740234 363.53899414 294.35612305 364.06542969 295.36450195 C364.51571533 296.22430664 364.96600098 297.08411133 365.42993164 297.9699707 C367.57167386 302.32769063 368.15681978 306.38270909 367.51464844 311.17700195 C365.88159015 315.45003013 363.51701243 318.85304867 359.51464844 321.17700195 C356.67965918 322.12199837 354.95766975 322.30144151 352.02251911 322.30004978 C351.09692953 322.30204083 350.17133996 322.30403188 349.21770221 322.30608326 C348.19923038 322.30317042 347.18075856 322.30025758 346.13142395 322.29725647 C345.05080285 322.29811089 343.97018175 322.29896532 342.85681456 322.29984564 C339.21775886 322.3014993 335.57874875 322.29598088 331.93969727 322.29052734 C329.33830262 322.29024542 326.7369079 322.2904033 324.13551331 322.29096985 C318.52558224 322.29149466 312.91566278 322.28835235 307.30573463 322.28273201 C299.19468224 322.27461119 291.08363546 322.27200119 282.97257944 322.27074402 C269.81350355 322.26855442 256.65443385 322.26189681 243.49536133 322.25244141 C230.71118196 322.24326492 217.92700427 322.23618524 205.14282227 322.23193359 C203.96115427 322.23153951 203.96115427 322.23153951 202.7556142 322.23113746 C198.8036313 322.22983244 194.85164839 322.22856873 190.89966547 322.22732556 C158.10465529 322.2169558 125.30965269 322.19933998 92.51464844 322.17700195 C92.51833561 323.08699196 92.52202278 323.99698196 92.52582169 324.93454742 C92.61419245 347.08548161 92.68036771 369.23638538 92.72189713 391.3874588 C92.7425147 402.09959752 92.77062002 412.8116185 92.81640625 423.52368164 C92.85629853 432.86126456 92.8820871 442.19876221 92.89100242 451.53642797 C92.89621309 456.47982179 92.90844346 461.42297166 92.93756866 466.36628723 C92.96477547 471.02184329 92.97308277 475.67705556 92.96707916 480.33268356 C92.96817704 482.038653 92.97609956 483.74463427 92.99147034 485.45053482 C93.12907272 501.51385098 93.12907272 501.51385098 88.51464844 508.17700195 C84.84096888 511.76107957 81.93227527 512.44715898 76.95214844 512.61450195 C72.67799793 512.440756 69.8223444 512.08376507 66.51464844 509.17700195 C62.21994336 504.28581006 61.36771015 501.46554018 61.39439392 495.10299683 C61.3935395 494.36624855 61.39268507 493.62950028 61.39180475 492.8704263 C61.39015094 490.38909775 61.39566973 487.90783604 61.40112305 485.42651367 C61.40140497 483.65284222 61.40124709 481.87917065 61.40068054 480.10549927 C61.40039275 475.27931518 61.40628653 470.45315578 61.4132545 465.62697744 C61.41949108 460.58742999 61.42009208 455.54788202 61.42127991 450.5083313 C61.42439232 440.96024764 61.43260451 431.41217539 61.4426294 421.86409676 C61.45379331 410.99606039 61.45930169 400.12802349 61.46432483 389.25998282 C61.47478719 366.89898142 61.49313157 344.53799565 61.51464844 322.17700195 C45.34464844 322.17700195 29.17464844 322.17700195 12.51464844 322.17700195 C12.53035889 327.56802246 12.54606934 332.95904297 12.56225586 338.51342773 C12.61191142 356.30301207 12.64523403 374.0925991 12.67008495 391.88223457 C12.68555608 402.67063046 12.70665033 413.4589607 12.7409668 424.24731445 C12.77086158 433.65006742 12.79022166 443.05277284 12.79691392 452.45557201 C12.80082603 457.434625 12.81002523 462.413542 12.83183861 467.39255142 C12.85220495 472.07925076 12.85848191 476.7657581 12.85397148 481.45249748 C12.85479661 483.17219905 12.86076139 484.89190706 12.87226486 486.61157036 C12.88721148 488.96126308 12.88359443 491.31023285 12.87541199 493.65994263 C12.87817737 494.97441942 12.88094275 496.28889622 12.88379192 497.64320564 C12.34571997 502.7941476 10.78777333 506.02808436 6.95214844 509.48950195 C1.99857438 512.91889938 -2.5726728 512.78664256 -8.48535156 512.17700195 C-13.63388837 509.60273355 -16.66735957 506.63097794 -18.48535156 501.17700195 C-18.57804483 498.79303462 -18.60727562 496.40647429 -18.60560608 494.02070618 C-18.6064605 493.28718703 -18.60731493 492.55366788 -18.60819525 491.79792088 C-18.60984584 489.33351767 -18.60433553 486.86918213 -18.59887695 484.40478516 C-18.59859496 482.64081829 -18.59875304 480.87685131 -18.59931946 479.11288452 C-18.59960698 474.31775032 -18.59371755 469.52264101 -18.5867455 464.7275126 C-18.58050444 459.71866751 -18.57990757 454.70982189 -18.57872009 449.70097351 C-18.57560901 440.21313026 -18.5673986 430.7252985 -18.5573706 421.23746032 C-18.54620258 410.43711412 -18.54069727 399.63676737 -18.53567517 388.83641684 C-18.52521581 366.61660546 -18.50762066 344.39680443 -18.48535156 322.17700195 C-19.09660889 322.19077881 -19.70786621 322.20455566 -20.33764648 322.21875 C-21.14306885 322.22946533 -21.94849121 322.24018066 -22.77832031 322.2512207 C-23.57520264 322.26499756 -24.37208496 322.27877441 -25.19311523 322.29296875 C-29.89219521 322.05523704 -32.68691293 320.04017886 -35.79785156 316.67700195 C-38.00810047 313.40255912 -38.6101371 310.93801288 -38.61677933 307.07644939 C-38.62062047 306.2381615 -38.62446162 305.39987361 -38.62841916 304.53618306 C-38.62755268 303.61518671 -38.6266862 302.69419036 -38.62579346 301.74528503 C-38.62876458 300.76690259 -38.6317357 299.78852014 -38.63479686 298.78048974 C-38.6435001 295.48711481 -38.64499348 292.19377616 -38.64648438 288.90039062 C-38.65111138 286.54518048 -38.65613588 284.18997109 -38.66152954 281.83476257 C-38.67603707 274.75694652 -38.68203912 267.67913825 -38.68692505 260.60130998 C-38.68950247 257.2683124 -38.6932927 253.93531614 -38.69704437 250.60231972 C-38.70923695 239.52326071 -38.71953632 228.44420363 -38.72291946 217.36513805 C-38.72313903 216.65602609 -38.7233586 215.94691412 -38.72358482 215.21631392 C-38.72380309 214.50550346 -38.72402137 213.79469299 -38.72424626 213.06234282 C-38.72468973 211.62196553 -38.72513629 210.18158823 -38.72558594 208.74121094 C-38.72580737 208.02673376 -38.7260288 207.31225658 -38.72625694 206.57612858 C-38.73020503 194.99879473 -38.74765943 183.42152382 -38.77094546 171.84421428 C-38.79465864 159.95861739 -38.8071213 148.07305209 -38.80828738 136.18743116 C-38.80920416 129.5138261 -38.81527536 122.84029186 -38.83310699 116.16670799 C-38.84955127 109.89012944 -38.85176085 103.61370671 -38.84296799 97.33711433 C-38.84219567 95.03205829 -38.84656577 92.726994 -38.85642624 90.42195892 C-38.86908912 87.2776756 -38.86329947 84.1339489 -38.85284424 80.9896698 C-38.86090064 80.07536562 -38.86895705 79.16106143 -38.87725759 78.21905106 C-38.83754106 73.11959909 -38.33671397 69.58546413 -35.48535156 65.17700195 C-31.29733529 61.39757263 -28.94628633 60.0428874 -23.36035156 60.11450195 C-22.45027344 60.12352539 -21.54019531 60.13254883 -20.60253906 60.1418457 C-19.90386719 60.15344727 -19.20519531 60.16504883 -18.48535156 60.17700195 C-18.4920134 59.57644989 -18.49867523 58.97589783 -18.50553894 58.35714722 C-18.57201234 52.09533044 -18.61720203 45.83361426 -18.65014648 39.5715332 C-18.66521417 37.23587979 -18.68567205 34.90025459 -18.71166992 32.56469727 C-18.74814115 29.20362376 -18.76509846 25.84292504 -18.77832031 22.48168945 C-18.79380417 21.44084198 -18.80928802 20.39999451 -18.82524109 19.3276062 C-18.826505 13.85814789 -18.64288062 9.86563916 -15.48535156 5.17700195 C-10.24901615 0.45152853 -6.87299198 0.02215127 0 0 Z M12.51464844 30.17700195 C12.51464844 40.07700195 12.51464844 49.97700195 12.51464844 60.17700195 C28.68464844 60.17700195 44.85464844 60.17700195 61.51464844 60.17700195 C61.51464844 50.27700195 61.51464844 40.37700195 61.51464844 30.17700195 C45.34464844 30.17700195 29.17464844 30.17700195 12.51464844 30.17700195 Z M-7.48535156 90.17700195 C-7.48535156 156.50700195 -7.48535156 222.83700195 -7.48535156 291.17700195 C102.40464844 291.17700195 212.29464844 291.17700195 325.51464844 291.17700195 C324.26296398 287.42194857 323.21336388 284.32335002 321.48339844 280.8840332 C321.09079834 280.1000415 320.69819824 279.3160498 320.29370117 278.50830078 C319.87161377 277.67709717 319.44952637 276.84589355 319.01464844 275.98950195 C318.56742432 275.10222412 318.1202002 274.21494629 317.65942383 273.30078125 C314.42768406 266.91388322 311.11675863 260.57114782 307.76318359 254.24755859 C302.67324459 244.63160609 297.7195501 234.9450711 292.75463867 225.26416016 C292.05769096 223.90686094 291.360509 222.54968198 290.66308594 221.19262695 C290.32320145 220.5311113 289.98331696 219.86959564 289.63313293 219.18803406 C286.82505723 213.7406327 283.94575004 208.33264391 281.02084351 202.94708252 C278.148534 197.62079583 276.7687821 193.25755031 277.51464844 187.17700195 C278.51461028 184.08394787 279.91430932 181.25625167 281.38964844 178.36450195 C281.79965088 177.53176758 282.20965332 176.6990332 282.63208008 175.84106445 C285.70410322 169.64915462 288.90505521 163.52195896 292.15332031 157.42089844 C296.65340792 148.96805396 301.01879714 140.44712142 305.38964844 131.92700195 C311.26319834 120.47908653 317.16026579 109.04545144 323.16259766 97.66430664 C323.61135254 96.80998047 324.06010742 95.9556543 324.52246094 95.07543945 C324.91062988 94.33986816 325.29879883 93.60429688 325.69873047 92.84643555 C326.58783206 91.33695448 326.58783206 91.33695448 326.51464844 90.17700195 C216.29464844 90.17700195 106.07464844 90.17700195 -7.48535156 90.17700195 Z " fill="#000000" transform="translate(91.4853515625,-0.177001953125)"/>
</svg>
